<mxfile host="app.diagrams.net" modified="2023-10-31T20:04:47.965Z" agent="Mozilla/5.0 (Macintosh; Intel Mac OS X 10_15_7) AppleWebKit/537.36 (KHTML, like Gecko) Chrome/118.0.0.0 Safari/537.36" etag="0roq33aKYzqFjkHkmCQm" version="22.0.8" type="device">
  <diagram name="Page-1" id="Iv-helwt_uu5qaNxVMFq">
    <mxGraphModel dx="1122" dy="676" grid="1" gridSize="10" guides="1" tooltips="1" connect="1" arrows="1" fold="1" page="1" pageScale="1" pageWidth="827" pageHeight="1169" math="0" shadow="0">
      <root>
        <mxCell id="0" />
        <mxCell id="1" parent="0" />
        <mxCell id="nNtsV_3TfsuM6UPBsNk--1" value="MOVIES" style="swimlane;childLayout=stackLayout;horizontal=1;startSize=50;horizontalStack=0;rounded=0;fontSize=14;fontStyle=0;strokeWidth=2;resizeParent=0;resizeLast=1;shadow=0;dashed=0;align=center;arcSize=4;whiteSpace=wrap;html=1;" vertex="1" parent="1">
          <mxGeometry x="360" y="250" width="160" height="220" as="geometry" />
        </mxCell>
        <mxCell id="nNtsV_3TfsuM6UPBsNk--2" value="&lt;u&gt;mid&lt;br&gt;&lt;/u&gt;tittle&lt;br&gt;yearmade&lt;br&gt;countryid(FK)&lt;br&gt;duration&lt;br&gt;&lt;u style=&quot;border-color: var(--border-color);&quot;&gt;direcid&lt;/u&gt;(FK)&lt;br&gt;&lt;u style=&quot;border-color: var(--border-color);&quot;&gt;actorid&lt;/u&gt;(FK)&lt;br&gt;&lt;u style=&quot;border-color: var(--border-color);&quot;&gt;catid&lt;/u&gt;(FK)&lt;br&gt;typeid(FK)" style="align=left;strokeColor=none;fillColor=none;spacingLeft=4;fontSize=12;verticalAlign=top;resizable=0;rotatable=0;part=1;html=1;" vertex="1" parent="nNtsV_3TfsuM6UPBsNk--1">
          <mxGeometry y="50" width="160" height="170" as="geometry" />
        </mxCell>
        <mxCell id="nNtsV_3TfsuM6UPBsNk--3" value="DIRECTORS" style="swimlane;childLayout=stackLayout;horizontal=1;startSize=50;horizontalStack=0;rounded=0;fontSize=14;fontStyle=0;strokeWidth=2;resizeParent=0;resizeLast=1;shadow=0;dashed=0;align=center;arcSize=4;whiteSpace=wrap;html=1;" vertex="1" parent="1">
          <mxGeometry x="80" y="70" width="160" height="120" as="geometry" />
        </mxCell>
        <mxCell id="nNtsV_3TfsuM6UPBsNk--4" value="&lt;u&gt;direcid&lt;/u&gt;&lt;br&gt;firstname&lt;br&gt;lastname" style="align=left;strokeColor=none;fillColor=none;spacingLeft=4;fontSize=12;verticalAlign=top;resizable=0;rotatable=0;part=1;html=1;" vertex="1" parent="nNtsV_3TfsuM6UPBsNk--3">
          <mxGeometry y="50" width="160" height="70" as="geometry" />
        </mxCell>
        <mxCell id="nNtsV_3TfsuM6UPBsNk--5" value="ACTORS" style="swimlane;childLayout=stackLayout;horizontal=1;startSize=50;horizontalStack=0;rounded=0;fontSize=14;fontStyle=0;strokeWidth=2;resizeParent=0;resizeLast=1;shadow=0;dashed=0;align=center;arcSize=4;whiteSpace=wrap;html=1;" vertex="1" parent="1">
          <mxGeometry x="640" y="40" width="160" height="120" as="geometry" />
        </mxCell>
        <mxCell id="nNtsV_3TfsuM6UPBsNk--6" value="&lt;u&gt;actorid&lt;/u&gt;&lt;br&gt;firstname&lt;br&gt;lastname" style="align=left;strokeColor=none;fillColor=none;spacingLeft=4;fontSize=12;verticalAlign=top;resizable=0;rotatable=0;part=1;html=1;" vertex="1" parent="nNtsV_3TfsuM6UPBsNk--5">
          <mxGeometry y="50" width="160" height="70" as="geometry" />
        </mxCell>
        <mxCell id="nNtsV_3TfsuM6UPBsNk--7" value="ACTORS_MOVIES" style="swimlane;childLayout=stackLayout;horizontal=1;startSize=50;horizontalStack=0;rounded=0;fontSize=14;fontStyle=0;strokeWidth=2;resizeParent=0;resizeLast=1;shadow=0;dashed=0;align=center;arcSize=4;whiteSpace=wrap;html=1;" vertex="1" parent="1">
          <mxGeometry x="370" y="60" width="160" height="120" as="geometry" />
        </mxCell>
        <mxCell id="nNtsV_3TfsuM6UPBsNk--8" value="&lt;u&gt;actorid(FK)&lt;br&gt;mid(FK)&lt;br&gt;&lt;/u&gt;" style="align=left;strokeColor=none;fillColor=none;spacingLeft=4;fontSize=12;verticalAlign=top;resizable=0;rotatable=0;part=1;html=1;" vertex="1" parent="nNtsV_3TfsuM6UPBsNk--7">
          <mxGeometry y="50" width="160" height="70" as="geometry" />
        </mxCell>
        <mxCell id="nNtsV_3TfsuM6UPBsNk--9" value="CATEGORIES" style="swimlane;childLayout=stackLayout;horizontal=1;startSize=50;horizontalStack=0;rounded=0;fontSize=14;fontStyle=0;strokeWidth=2;resizeParent=0;resizeLast=1;shadow=0;dashed=0;align=center;arcSize=4;whiteSpace=wrap;html=1;" vertex="1" parent="1">
          <mxGeometry x="650" y="400" width="160" height="120" as="geometry" />
        </mxCell>
        <mxCell id="nNtsV_3TfsuM6UPBsNk--10" value="&lt;u&gt;catid&lt;/u&gt;&lt;br&gt;category" style="align=left;strokeColor=none;fillColor=none;spacingLeft=4;fontSize=12;verticalAlign=top;resizable=0;rotatable=0;part=1;html=1;" vertex="1" parent="nNtsV_3TfsuM6UPBsNk--9">
          <mxGeometry y="50" width="160" height="70" as="geometry" />
        </mxCell>
        <mxCell id="nNtsV_3TfsuM6UPBsNk--11" value="TYPE" style="swimlane;childLayout=stackLayout;horizontal=1;startSize=50;horizontalStack=0;rounded=0;fontSize=14;fontStyle=0;strokeWidth=2;resizeParent=0;resizeLast=1;shadow=0;dashed=0;align=center;arcSize=4;whiteSpace=wrap;html=1;" vertex="1" parent="1">
          <mxGeometry x="80" y="360" width="160" height="150" as="geometry" />
        </mxCell>
        <mxCell id="nNtsV_3TfsuM6UPBsNk--12" value="&lt;u&gt;typeid&lt;br&gt;&lt;/u&gt;type_name&lt;br&gt;barcode&lt;br&gt;disposition&lt;br&gt;price" style="align=left;strokeColor=none;fillColor=none;spacingLeft=4;fontSize=12;verticalAlign=top;resizable=0;rotatable=0;part=1;html=1;" vertex="1" parent="nNtsV_3TfsuM6UPBsNk--11">
          <mxGeometry y="50" width="160" height="100" as="geometry" />
        </mxCell>
        <mxCell id="nNtsV_3TfsuM6UPBsNk--13" value="" style="endArrow=ERmany;html=1;rounded=0;entryX=0.5;entryY=1;entryDx=0;entryDy=0;exitX=0.563;exitY=0;exitDx=0;exitDy=0;exitPerimeter=0;endFill=0;" edge="1" parent="1" source="nNtsV_3TfsuM6UPBsNk--1" target="nNtsV_3TfsuM6UPBsNk--8">
          <mxGeometry relative="1" as="geometry">
            <mxPoint x="360" y="280" as="sourcePoint" />
            <mxPoint x="520" y="280" as="targetPoint" />
          </mxGeometry>
        </mxCell>
        <mxCell id="nNtsV_3TfsuM6UPBsNk--14" value="1" style="resizable=0;html=1;whiteSpace=wrap;align=left;verticalAlign=bottom;" connectable="0" vertex="1" parent="nNtsV_3TfsuM6UPBsNk--13">
          <mxGeometry x="-1" relative="1" as="geometry" />
        </mxCell>
        <mxCell id="nNtsV_3TfsuM6UPBsNk--15" value="" style="resizable=0;html=1;whiteSpace=wrap;align=right;verticalAlign=bottom;" connectable="0" vertex="1" parent="nNtsV_3TfsuM6UPBsNk--13">
          <mxGeometry x="1" relative="1" as="geometry" />
        </mxCell>
        <mxCell id="nNtsV_3TfsuM6UPBsNk--16" value="M" style="edgeLabel;html=1;align=center;verticalAlign=middle;resizable=0;points=[];" vertex="1" connectable="0" parent="nNtsV_3TfsuM6UPBsNk--13">
          <mxGeometry x="0.3714" y="-1" relative="1" as="geometry">
            <mxPoint as="offset" />
          </mxGeometry>
        </mxCell>
        <mxCell id="nNtsV_3TfsuM6UPBsNk--17" value="" style="endArrow=ERmany;html=1;rounded=0;entryX=1;entryY=0.25;entryDx=0;entryDy=0;endFill=0;exitX=0;exitY=0.5;exitDx=0;exitDy=0;" edge="1" parent="1" source="nNtsV_3TfsuM6UPBsNk--6" target="nNtsV_3TfsuM6UPBsNk--8">
          <mxGeometry relative="1" as="geometry">
            <mxPoint x="590" y="100" as="sourcePoint" />
            <mxPoint x="460" y="190" as="targetPoint" />
          </mxGeometry>
        </mxCell>
        <mxCell id="nNtsV_3TfsuM6UPBsNk--18" value="" style="resizable=0;html=1;whiteSpace=wrap;align=left;verticalAlign=bottom;" connectable="0" vertex="1" parent="nNtsV_3TfsuM6UPBsNk--17">
          <mxGeometry x="-1" relative="1" as="geometry" />
        </mxCell>
        <mxCell id="nNtsV_3TfsuM6UPBsNk--19" value="" style="resizable=0;html=1;whiteSpace=wrap;align=right;verticalAlign=bottom;" connectable="0" vertex="1" parent="nNtsV_3TfsuM6UPBsNk--17">
          <mxGeometry x="1" relative="1" as="geometry" />
        </mxCell>
        <mxCell id="nNtsV_3TfsuM6UPBsNk--20" value="M" style="edgeLabel;html=1;align=center;verticalAlign=middle;resizable=0;points=[];" vertex="1" connectable="0" parent="nNtsV_3TfsuM6UPBsNk--17">
          <mxGeometry x="0.3714" y="-1" relative="1" as="geometry">
            <mxPoint as="offset" />
          </mxGeometry>
        </mxCell>
        <mxCell id="nNtsV_3TfsuM6UPBsNk--21" value="1" style="text;html=1;align=center;verticalAlign=middle;resizable=0;points=[];autosize=1;strokeColor=none;fillColor=none;" vertex="1" parent="1">
          <mxGeometry x="605" y="108" width="30" height="30" as="geometry" />
        </mxCell>
        <mxCell id="nNtsV_3TfsuM6UPBsNk--22" value="" style="endArrow=ERmany;html=1;rounded=0;endFill=0;exitX=0;exitY=0.629;exitDx=0;exitDy=0;entryX=1;entryY=0.25;entryDx=0;entryDy=0;exitPerimeter=0;" edge="1" parent="1" source="nNtsV_3TfsuM6UPBsNk--10" target="nNtsV_3TfsuM6UPBsNk--39">
          <mxGeometry relative="1" as="geometry">
            <mxPoint x="580" y="270" as="sourcePoint" />
            <mxPoint x="570" y="330" as="targetPoint" />
            <Array as="points">
              <mxPoint x="580" y="490" />
              <mxPoint x="580" y="580" />
            </Array>
          </mxGeometry>
        </mxCell>
        <mxCell id="nNtsV_3TfsuM6UPBsNk--23" value="" style="resizable=0;html=1;whiteSpace=wrap;align=left;verticalAlign=bottom;" connectable="0" vertex="1" parent="nNtsV_3TfsuM6UPBsNk--22">
          <mxGeometry x="-1" relative="1" as="geometry" />
        </mxCell>
        <mxCell id="nNtsV_3TfsuM6UPBsNk--24" value="" style="resizable=0;html=1;whiteSpace=wrap;align=right;verticalAlign=bottom;" connectable="0" vertex="1" parent="nNtsV_3TfsuM6UPBsNk--22">
          <mxGeometry x="1" relative="1" as="geometry" />
        </mxCell>
        <mxCell id="nNtsV_3TfsuM6UPBsNk--25" value="M" style="edgeLabel;html=1;align=center;verticalAlign=middle;resizable=0;points=[];" vertex="1" connectable="0" parent="nNtsV_3TfsuM6UPBsNk--22">
          <mxGeometry x="0.3714" y="-1" relative="1" as="geometry">
            <mxPoint as="offset" />
          </mxGeometry>
        </mxCell>
        <mxCell id="nNtsV_3TfsuM6UPBsNk--26" value="1" style="edgeLabel;html=1;align=center;verticalAlign=middle;resizable=0;points=[];" vertex="1" connectable="0" parent="nNtsV_3TfsuM6UPBsNk--22">
          <mxGeometry x="-0.5623" y="-4" relative="1" as="geometry">
            <mxPoint as="offset" />
          </mxGeometry>
        </mxCell>
        <mxCell id="nNtsV_3TfsuM6UPBsNk--27" value="" style="endArrow=ERmany;html=1;rounded=0;endFill=0;exitX=0.994;exitY=0.45;exitDx=0;exitDy=0;entryX=-0.012;entryY=0.588;entryDx=0;entryDy=0;entryPerimeter=0;exitPerimeter=0;" edge="1" parent="1" source="nNtsV_3TfsuM6UPBsNk--11" target="nNtsV_3TfsuM6UPBsNk--2">
          <mxGeometry relative="1" as="geometry">
            <mxPoint x="645" y="400" as="sourcePoint" />
            <mxPoint x="530" y="395" as="targetPoint" />
          </mxGeometry>
        </mxCell>
        <mxCell id="nNtsV_3TfsuM6UPBsNk--28" value="" style="resizable=0;html=1;whiteSpace=wrap;align=left;verticalAlign=bottom;" connectable="0" vertex="1" parent="nNtsV_3TfsuM6UPBsNk--27">
          <mxGeometry x="-1" relative="1" as="geometry" />
        </mxCell>
        <mxCell id="nNtsV_3TfsuM6UPBsNk--29" value="" style="resizable=0;html=1;whiteSpace=wrap;align=right;verticalAlign=bottom;" connectable="0" vertex="1" parent="nNtsV_3TfsuM6UPBsNk--27">
          <mxGeometry x="1" relative="1" as="geometry" />
        </mxCell>
        <mxCell id="nNtsV_3TfsuM6UPBsNk--30" value="M" style="edgeLabel;html=1;align=center;verticalAlign=middle;resizable=0;points=[];" vertex="1" connectable="0" parent="nNtsV_3TfsuM6UPBsNk--27">
          <mxGeometry x="0.3714" y="-1" relative="1" as="geometry">
            <mxPoint as="offset" />
          </mxGeometry>
        </mxCell>
        <mxCell id="nNtsV_3TfsuM6UPBsNk--31" value="1" style="edgeLabel;html=1;align=center;verticalAlign=middle;resizable=0;points=[];" vertex="1" connectable="0" parent="nNtsV_3TfsuM6UPBsNk--27">
          <mxGeometry x="-0.5623" y="-4" relative="1" as="geometry">
            <mxPoint as="offset" />
          </mxGeometry>
        </mxCell>
        <mxCell id="nNtsV_3TfsuM6UPBsNk--32" value="" style="endArrow=ERmany;html=1;rounded=0;endFill=0;entryX=-0.019;entryY=0.15;entryDx=0;entryDy=0;entryPerimeter=0;exitX=1;exitY=0.5;exitDx=0;exitDy=0;" edge="1" parent="1" source="nNtsV_3TfsuM6UPBsNk--4" target="nNtsV_3TfsuM6UPBsNk--1">
          <mxGeometry relative="1" as="geometry">
            <mxPoint x="250" y="200" as="sourcePoint" />
            <mxPoint x="540" y="405" as="targetPoint" />
            <Array as="points">
              <mxPoint x="240" y="280" />
            </Array>
          </mxGeometry>
        </mxCell>
        <mxCell id="nNtsV_3TfsuM6UPBsNk--33" value="" style="resizable=0;html=1;whiteSpace=wrap;align=left;verticalAlign=bottom;" connectable="0" vertex="1" parent="nNtsV_3TfsuM6UPBsNk--32">
          <mxGeometry x="-1" relative="1" as="geometry" />
        </mxCell>
        <mxCell id="nNtsV_3TfsuM6UPBsNk--34" value="" style="resizable=0;html=1;whiteSpace=wrap;align=right;verticalAlign=bottom;" connectable="0" vertex="1" parent="nNtsV_3TfsuM6UPBsNk--32">
          <mxGeometry x="1" relative="1" as="geometry" />
        </mxCell>
        <mxCell id="nNtsV_3TfsuM6UPBsNk--35" value="M" style="edgeLabel;html=1;align=center;verticalAlign=middle;resizable=0;points=[];" vertex="1" connectable="0" parent="nNtsV_3TfsuM6UPBsNk--32">
          <mxGeometry x="0.3714" y="-1" relative="1" as="geometry">
            <mxPoint as="offset" />
          </mxGeometry>
        </mxCell>
        <mxCell id="nNtsV_3TfsuM6UPBsNk--36" value="1" style="edgeLabel;html=1;align=center;verticalAlign=middle;resizable=0;points=[];" vertex="1" connectable="0" parent="nNtsV_3TfsuM6UPBsNk--32">
          <mxGeometry x="-0.5623" y="-4" relative="1" as="geometry">
            <mxPoint as="offset" />
          </mxGeometry>
        </mxCell>
        <mxCell id="nNtsV_3TfsuM6UPBsNk--37" value="COUNTRIES" style="swimlane;childLayout=stackLayout;horizontal=1;startSize=50;horizontalStack=0;rounded=0;fontSize=14;fontStyle=0;strokeWidth=2;resizeParent=0;resizeLast=1;shadow=0;dashed=0;align=center;arcSize=4;whiteSpace=wrap;html=1;" vertex="1" parent="1">
          <mxGeometry x="600" y="220" width="160" height="120" as="geometry" />
        </mxCell>
        <mxCell id="nNtsV_3TfsuM6UPBsNk--38" value="&lt;u&gt;countryid&lt;/u&gt;&lt;br&gt;country_name" style="align=left;strokeColor=none;fillColor=none;spacingLeft=4;fontSize=12;verticalAlign=top;resizable=0;rotatable=0;part=1;html=1;" vertex="1" parent="nNtsV_3TfsuM6UPBsNk--37">
          <mxGeometry y="50" width="160" height="70" as="geometry" />
        </mxCell>
        <mxCell id="nNtsV_3TfsuM6UPBsNk--39" value="MOVIES_CATEGORIES" style="swimlane;childLayout=stackLayout;horizontal=1;startSize=50;horizontalStack=0;rounded=0;fontSize=14;fontStyle=0;strokeWidth=2;resizeParent=0;resizeLast=1;shadow=0;dashed=0;align=center;arcSize=4;whiteSpace=wrap;html=1;" vertex="1" parent="1">
          <mxGeometry x="360" y="550" width="160" height="120" as="geometry" />
        </mxCell>
        <mxCell id="nNtsV_3TfsuM6UPBsNk--40" value="&lt;u style=&quot;border-color: var(--border-color);&quot;&gt;mid(FK)&lt;br&gt;&lt;u style=&quot;border-color: var(--border-color);&quot;&gt;catid(FK)&lt;/u&gt;&lt;br style=&quot;border-color: var(--border-color);&quot;&gt;&lt;/u&gt;" style="align=left;strokeColor=none;fillColor=none;spacingLeft=4;fontSize=12;verticalAlign=top;resizable=0;rotatable=0;part=1;html=1;" vertex="1" parent="nNtsV_3TfsuM6UPBsNk--39">
          <mxGeometry y="50" width="160" height="70" as="geometry" />
        </mxCell>
        <mxCell id="nNtsV_3TfsuM6UPBsNk--41" value="" style="endArrow=ERmany;html=1;rounded=0;endFill=0;exitX=0.594;exitY=1.012;exitDx=0;exitDy=0;entryX=0.55;entryY=-0.025;entryDx=0;entryDy=0;exitPerimeter=0;entryPerimeter=0;" edge="1" parent="1" source="nNtsV_3TfsuM6UPBsNk--2" target="nNtsV_3TfsuM6UPBsNk--39">
          <mxGeometry relative="1" as="geometry">
            <mxPoint x="660" y="504" as="sourcePoint" />
            <mxPoint x="530" y="590" as="targetPoint" />
            <Array as="points">
              <mxPoint x="455" y="500" />
            </Array>
          </mxGeometry>
        </mxCell>
        <mxCell id="nNtsV_3TfsuM6UPBsNk--42" value="" style="resizable=0;html=1;whiteSpace=wrap;align=left;verticalAlign=bottom;" connectable="0" vertex="1" parent="nNtsV_3TfsuM6UPBsNk--41">
          <mxGeometry x="-1" relative="1" as="geometry" />
        </mxCell>
        <mxCell id="nNtsV_3TfsuM6UPBsNk--43" value="" style="resizable=0;html=1;whiteSpace=wrap;align=right;verticalAlign=bottom;" connectable="0" vertex="1" parent="nNtsV_3TfsuM6UPBsNk--41">
          <mxGeometry x="1" relative="1" as="geometry" />
        </mxCell>
        <mxCell id="nNtsV_3TfsuM6UPBsNk--44" value="M" style="edgeLabel;html=1;align=center;verticalAlign=middle;resizable=0;points=[];" vertex="1" connectable="0" parent="nNtsV_3TfsuM6UPBsNk--41">
          <mxGeometry x="0.3714" y="-1" relative="1" as="geometry">
            <mxPoint as="offset" />
          </mxGeometry>
        </mxCell>
        <mxCell id="nNtsV_3TfsuM6UPBsNk--45" value="1" style="edgeLabel;html=1;align=center;verticalAlign=middle;resizable=0;points=[];" vertex="1" connectable="0" parent="nNtsV_3TfsuM6UPBsNk--41">
          <mxGeometry x="-0.5623" y="-4" relative="1" as="geometry">
            <mxPoint as="offset" />
          </mxGeometry>
        </mxCell>
        <mxCell id="nNtsV_3TfsuM6UPBsNk--46" value="" style="endArrow=ERmany;html=1;rounded=0;endFill=0;exitX=0;exitY=0.75;exitDx=0;exitDy=0;entryX=1;entryY=0.25;entryDx=0;entryDy=0;" edge="1" parent="1" source="nNtsV_3TfsuM6UPBsNk--37" target="nNtsV_3TfsuM6UPBsNk--2">
          <mxGeometry relative="1" as="geometry">
            <mxPoint x="465" y="482" as="sourcePoint" />
            <mxPoint x="458" y="557" as="targetPoint" />
            <Array as="points" />
          </mxGeometry>
        </mxCell>
        <mxCell id="nNtsV_3TfsuM6UPBsNk--47" value="" style="resizable=0;html=1;whiteSpace=wrap;align=left;verticalAlign=bottom;" connectable="0" vertex="1" parent="nNtsV_3TfsuM6UPBsNk--46">
          <mxGeometry x="-1" relative="1" as="geometry" />
        </mxCell>
        <mxCell id="nNtsV_3TfsuM6UPBsNk--48" value="" style="resizable=0;html=1;whiteSpace=wrap;align=right;verticalAlign=bottom;" connectable="0" vertex="1" parent="nNtsV_3TfsuM6UPBsNk--46">
          <mxGeometry x="1" relative="1" as="geometry" />
        </mxCell>
        <mxCell id="nNtsV_3TfsuM6UPBsNk--49" value="M" style="edgeLabel;html=1;align=center;verticalAlign=middle;resizable=0;points=[];" vertex="1" connectable="0" parent="nNtsV_3TfsuM6UPBsNk--46">
          <mxGeometry x="0.3714" y="-1" relative="1" as="geometry">
            <mxPoint as="offset" />
          </mxGeometry>
        </mxCell>
        <mxCell id="nNtsV_3TfsuM6UPBsNk--50" value="1" style="edgeLabel;html=1;align=center;verticalAlign=middle;resizable=0;points=[];" vertex="1" connectable="0" parent="nNtsV_3TfsuM6UPBsNk--46">
          <mxGeometry x="-0.5623" y="-4" relative="1" as="geometry">
            <mxPoint as="offset" />
          </mxGeometry>
        </mxCell>
      </root>
    </mxGraphModel>
  </diagram>
</mxfile>
